PathFileType	4	(X/Y/Z)	Patient4_TMGait_0pt4_01_left_17.trc.trc
DataRate	CameraRate	NumFrames	NumMarkers	Units	OrigDataRate	OrigDataStartFrame	OrigNumFrames
378.378378378377	378.378378378377	5	33	mm	378.378378378377	53	       141
Frame#	Time	Sacral			L.Shoulder			Chest			R.Shoulder			Neck			R.ASIS			L.ASIS			R.Thigh.Superior			R.Thigh.Lateral			R.Thigh.Inferior			R.Patella			L.Thigh.Superior			L.Thigh.Lateral			L.Thigh.Inferior			L.Patella			L.Shank.Superior			L.Shank.Lateral			L.Shank.Inferior			R.Shank.Superior			R.Shank.Lateral			R.Shank.Inferior			R.Heel			R.Midfoot.Superior			R.Midfoot.Lateral			R.Toe			L.Heel			L.Midfoot.Lateral			L.Midfoot.Superior			L.Toe			L.Elbow			L.Wrist			R.Elbow			R.Wrist			
		X1	Y1	Z1	X2	Y2	Z2	X3	Y3	Z3	X4	Y4	Z4	X5	Y5	Z5	X6	Y6	Z6	X7	Y7	Z7	X8	Y8	Z8	X9	Y9	Z9	X10	Y10	Z10	X11	Y11	Z11	X12	Y12	Z12	X13	Y13	Z13	X14	Y14	Z14	X15	Y15	Z15	X16	Y16	Z16	X17	Y17	Z17	X18	Y18	Z18	X19	Y19	Z19	X20	Y20	Z20	X21	Y21	Z21	X22	Y22	Z22	X23	Y23	Z23	X24	Y24	Z24	X25	Y25	Z25	X26	Y26	Z26	X27	Y27	Z27	X28	Y28	Z28	X29	Y29	Z29	X30	Y30	Z30	X31	Y31	Z31	X32	Y32	Z32	X33	Y33	Z33	

53	21.357428571429	717.513557536167	1007.471940906876	472.039226958984	877.634274245362	1437.227255022602	282.908892161194	1004.706732151703	1363.852803909850	423.155659375534	954.001399075683	1434.089480189768	611.508969585410	892.972465583603	1495.490584022791	448.464293727043	957.280420092612	940.808716632871	560.056949551829	911.843110865162	967.205555806192	290.298699546558	980.793570911261	735.295542005457	527.780596672343	898.013852424813	629.062357408119	593.530980195637	965.952291965066	574.578466392292	508.515574151278	959.595418151017	486.833327306802	514.649179098158	985.544128834240	775.922795630990	300.675802914104	928.025438848250	656.201584514198	216.521313007266	1034.161199176319	591.409863989064	268.626195504344	1058.145016568740	521.604247815731	255.364716352270	1027.411705909303	448.949457781199	244.075320911902	933.904887385838	337.613832107299	191.172588925147	1003.038415160889	220.241992133535	234.475637709996	926.063945166556	398.636862210000	519.840874371628	849.901688086396	298.380739732429	582.005182831230	882.191622464764	203.175284462083	514.757292752853	736.125924339304	42.732608513218	486.023932360545	909.830205874048	95.207664291191	515.541468815453	822.009865349806	36.654279976987	557.628055996197	1029.858440764675	39.999217002599	539.371848452918	890.690922097602	53.863010040704	269.409903636636	958.386183687318	54.620620638868	183.956932291573	1040.808218847107	121.277873555189	203.528699552618	1166.779730884702	77.124862675730	164.312248216299	762.325328208192	1097.659725062995	193.478007726049	757.550403164089	840.441849314034	160.333227909721	1048.631498490108	1100.152213344135	725.775037959830	1286.382501920491	1018.861568843936	671.484991242432	
54	21.360071428571	717.258515731635	1007.426319502949	472.140703292152	877.287305520765	1437.189107592028	282.876610246210	1004.528232299488	1363.742391407543	422.939361192017	954.103356646572	1433.950389181415	611.378416866149	892.849256190767	1495.405413039219	448.427353221404	957.187014210258	940.648179100789	559.821490734695	911.369816307105	967.218547127711	290.110022314774	980.442021981150	735.105091645557	527.356791038285	897.720154845106	628.943246311966	593.288670549318	965.370726558325	574.398596723468	508.099260579388	958.933627115238	486.661745326118	514.226474499402	985.061674957348	775.940154088467	300.587824697829	927.743227893088	656.278792595596	216.309790471866	1033.752824618126	591.455660235509	268.528855130275	1057.814291479765	521.794365934576	255.368046177824	1027.553203760000	449.187826920234	244.143811818408	934.905652797009	337.359509482939	190.819376410229	1004.503043614907	220.353840783575	234.355007043087	925.346263511363	398.476479267609	519.490828832895	849.228790865756	298.285004978918	581.868913479859	881.289573204852	203.056255560502	514.586210463164	735.034593417985	42.718753983708	486.011295707185	908.738061593858	95.198540094028	515.524596880208	820.920016727345	36.640054224444	557.622002101418	1028.791670462894	39.998772953200	539.376650730625	892.842813413223	53.460268178379	268.685741469537	961.098506207777	54.330551003569	183.679143939552	1043.042765073319	121.463853686311	203.610101332768	1169.504348048545	77.840189454146	165.361798063681	761.539892737345	1097.796313199554	193.448378089636	756.010016720525	840.647140165320	160.141588491343	1049.235121860289	1100.144735000486	725.462494573418	1287.333703029421	1020.151180305941	670.876028001099	
55	21.362714285714	717.001089049228	1007.385787296319	472.241233167817	876.938589471441	1437.153447024906	282.837268944315	1004.351103454295	1363.633348873915	422.716522535770	954.211334434765	1433.818040352426	611.238445927287	892.727419644979	1495.324366331675	448.382056453218	957.095195709899	940.487885712372	559.565972452239	910.891950030105	967.240097287755	289.912521615812	980.084699689619	734.914777197247	526.933918628704	897.419307988160	628.826171194038	593.039840867137	964.784889781008	574.220722246352	507.676485242741	958.270196444185	486.491416479363	513.792305199713	984.582604531295	775.970789576267	300.501392474918	927.467438348473	656.347875452570	216.118736413867	1033.359083751569	591.498504724412	268.427834943296	1057.487484361554	521.968988714857	255.389821219961	1027.689446208329	449.420944361068	244.216911632651	935.871285508345	337.123447500879	190.492487856775	1005.926529018829	220.471197571957	234.240580005635	924.628602740841	398.319905226627	519.133861240331	848.555669158552	298.189693235425	581.726320217740	880.386051794833	202.931489296881	514.405238783030	733.947045424305	42.704030902226	486.004231996293	907.653704993918	95.198329885929	515.518719652714	819.834378258226	36.626549612429	557.616483956877	1027.724133546077	39.998058080462	539.380429504617	894.926274990313	53.087133451387	267.975207756023	963.732869717581	54.071175910120	183.415608757385	1045.212937158073	121.653138355849	203.709183358659	1172.139976692749	78.541679994256	166.409274049583	760.772637568647	1097.932225343800	193.400324868341	754.520894099409	840.852232931217	159.928489235597	1049.812265615276	1100.131038046065	725.137838449731	1288.248885713229	1021.421280668720	670.261199716250	
56	21.365357142857	716.741902485749	1007.350924529587	472.339107134465	876.587699410791	1437.119594986332	282.791855464219	1004.175093501322	1363.525601417938	422.486884524626	954.325154940955	1433.691653101248	611.089025299846	892.606759215019	1495.247613004358	448.328337965665	957.004554945829	940.327792779462	559.291381244768	910.409255028221	967.268818678906	289.706574799446	979.722305956320	734.725326084514	526.508741542009	897.111414638055	628.711013186718	592.784826998894	964.194894380502	574.044756373517	507.247737011453	957.605027338711	486.322246467119	513.348867146397	984.105156880699	776.010316509557	300.417498151595	927.196816257632	656.407185892412	215.947114231410	1032.980440232447	591.536928788713	268.324651929931	1057.166396060875	522.130005180264	255.431235651125	1027.820621230621	449.648354157172	244.293126087740	936.802297261372	336.904657052950	190.189018611618	1007.307584467876	220.593653092936	234.134069672497	923.909420797765	398.166236599275	518.772145452456	847.881092806083	298.096032186840	581.578114427158	879.478681936529	202.801336711978	514.213785613289	732.863393095873	42.688326918604	486.001506813061	906.575072690453	95.203383372697	515.518962699938	818.753206287387	36.614861225795	557.612673210943	1026.655339878458	39.996813328129	539.383336881795	896.941985832556	52.739985769711	267.281317866788	966.287002165023	53.844717653930	183.165689321174	1047.316928537572	121.847282638450	203.826391272524	1174.684141386925	79.234160906992	167.447797208027	760.022775309622	1098.067573003659	193.333132783201	753.083814786313	841.056840893790	159.693183790802	1050.364318660118	1100.112270741799	724.802175676395	1289.128195416054	1022.671424837959	669.639712099537	
57	21.368000000000	716.481772949354	1007.322217146373	472.432502428125	876.234203087784	1437.086778337721	282.741438743942	1003.999876005668	1363.419023953502	422.250147595288	954.444475918024	1433.570340592568	610.930164052293	892.487082676482	1495.175200420319	448.266175812719	956.914689230129	940.168036937519	558.999620537519	909.921922354386	967.303409861454	289.492137475812	979.355490758073	734.537440416326	526.077710292192	896.796703643884	628.597643878809	592.523886482669	963.600793500029	573.870557790121	506.813545423520	956.937884547380	486.154154377441	512.898681093369	983.627611528741	776.054077796153	300.336910076995	926.930159666135	656.455419265858	215.793613139226	1032.617218416171	591.569590328947	268.220810527368	1056.852690818814	522.279524748987	255.493209385869	1027.947077009246	449.869406930783	244.371266349319	937.699740777984	336.701960144538	189.905964767928	1008.644738003744	220.720674763345	234.037506314951	923.186825524966	398.014391857447	518.407863827482	847.203739851321	298.005419585327	581.425256851690	878.564903907307	202.666603204702	514.011674081881	731.783455768492	42.671682233766	486.001537887412	905.499975667283	95.209922009539	515.520545407100	817.676346287689	36.605885609752	557.611429137700	1025.585008068683	39.994846614623	539.385468718843	898.890831811624	52.414902958986	266.607493564683	968.758838535045	53.653079588718	182.928909710079	1049.352737518249	122.048121776587	203.962023384220	1177.134636511292	79.923076312493	168.470876462710	759.289374330115	1098.202256584333	193.246361393056	751.699339071573	841.260490303600	159.435177578716	1050.892989548163	1100.089951061819	724.457062364677	1289.971764232327	1023.901165151598	669.010623742890	
